<svg xmlns="http://www.w3.org/2000/svg" width="900" height="1200" viewBox="0 0 900 1200" role="img" aria-label="可疑快乐青柠实验易拉罐">
  <defs>
    <linearGradient id="limeBody" x1="210" y1="130" x2="720" y2="1080" gradientUnits="userSpaceOnUse">
      <stop offset="0" stop-color="#f2ffbf"/>
      <stop offset="0.28" stop-color="#baf27c"/>
      <stop offset="0.58" stop-color="#72e2cf"/>
      <stop offset="1" stop-color="#7d7de7"/>
    </linearGradient>
    <linearGradient id="limeSide" x1="220" y1="0" x2="690" y2="0" gradientUnits="userSpaceOnUse">
      <stop offset="0" stop-color="#ffffff" stop-opacity="0.92"/>
      <stop offset="0.14" stop-color="#ffffff" stop-opacity="0.42"/>
      <stop offset="0.48" stop-color="#ffffff" stop-opacity="0.03"/>
      <stop offset="1" stop-color="#22266a" stop-opacity="0.3"/>
    </linearGradient>
    <linearGradient id="metal" x1="232" y1="95" x2="668" y2="178" gradientUnits="userSpaceOnUse">
      <stop offset="0" stop-color="#ffffff"/>
      <stop offset="0.5" stop-color="#c5c9d6"/>
      <stop offset="1" stop-color="#ffffff"/>
    </linearGradient>
    <filter id="canShadow" x="-35%" y="-25%" width="170%" height="160%">
      <feDropShadow dx="0" dy="38" stdDeviation="42" flood-color="#282160" flood-opacity="0.32"/>
    </filter>
    <clipPath id="canClip">
      <path d="M255 164C255 118 645 118 645 164C670 394 684 789 661 1018C655 1080 245 1080 239 1018C216 789 230 394 255 164Z"/>
    </clipPath>
  </defs>
  <ellipse cx="450" cy="1070" rx="236" ry="48" fill="#31286e" opacity="0.16"/>
  <g filter="url(#canShadow)">
    <path d="M255 164C255 118 645 118 645 164C670 394 684 789 661 1018C655 1080 245 1080 239 1018C216 789 230 394 255 164Z" fill="url(#limeBody)"/>
    <g clip-path="url(#canClip)">
      <rect x="214" y="112" width="500" height="980" fill="url(#limeSide)"/>
      <path d="M286 224C314 204 351 216 353 254V876C353 925 309 951 283 916C298 686 298 454 286 224Z" fill="#fff" opacity="0.52"/>
      <path d="M236 650C328 610 384 690 472 635C546 590 601 574 666 606V762C584 710 515 776 424 756C344 739 294 692 236 730V650Z" fill="#ffffff" opacity="0.18"/>
      <rect x="304" y="350" width="296" height="390" rx="64" fill="#ffffff" opacity="0.34"/>
      <rect x="330" y="382" width="242" height="328" rx="48" fill="#fff" opacity="0.25"/>
      <circle cx="360" cy="290" r="8" fill="#fff" opacity="0.48"/>
      <circle cx="590" cy="352" r="10" fill="#fff" opacity="0.34"/>
      <circle cx="334" cy="792" r="7" fill="#fff" opacity="0.48"/>
      <text x="450" y="505" text-anchor="middle" font-family="'Noto Sans SC','Microsoft YaHei',sans-serif" font-weight="900" font-size="76" fill="#ffffff">可疑快乐</text>
      <text x="450" y="573" text-anchor="middle" font-family="'Noto Sans SC','Microsoft YaHei',sans-serif" font-weight="800" font-size="31" fill="#ffffff" opacity="0.88">青柠实验</text>
      <text x="450" y="633" text-anchor="middle" font-family="Arial,sans-serif" font-weight="800" font-size="25" letter-spacing="5" fill="#ffffff">LIME LAB</text>
      <rect x="344" y="792" width="212" height="56" rx="28" fill="#ffffff" opacity="0.25"/>
      <text x="450" y="829" text-anchor="middle" font-family="Arial,sans-serif" font-weight="800" font-size="23" fill="#ffffff">330ML / 5%</text>
    </g>
    <ellipse cx="450" cy="154" rx="202" ry="53" fill="#8f83b5" opacity="0.2"/>
    <ellipse cx="450" cy="137" rx="226" ry="65" fill="url(#metal)"/>
    <ellipse cx="450" cy="132" rx="176" ry="40" fill="#ffffff" opacity="0.32"/>
    <path d="M414 122C440 103 501 110 516 129C502 150 446 155 412 140C399 134 402 128 414 122Z" fill="#ffffff" opacity="0.4"/>
    <path d="M438 124C465 119 490 124 500 136C480 145 452 146 431 139C424 134 428 127 438 124Z" fill="#6f6988" opacity="0.18"/>
    <ellipse cx="450" cy="1060" rx="198" ry="36" fill="#4f3d93" opacity="0.14"/>
  </g>
</svg>
