<svg xmlns="http://www.w3.org/2000/svg" width="900" height="1200" viewBox="0 0 900 1200" role="img" aria-label="lime lab cocktail glass">
  <defs>
    <linearGradient id="glassEdge" x1="250" y1="130" x2="660" y2="1020" gradientUnits="userSpaceOnUse">
      <stop offset="0" stop-color="#ffffff" stop-opacity="0.9"/>
      <stop offset="0.5" stop-color="#ffffff" stop-opacity="0.16"/>
      <stop offset="1" stop-color="#ffffff" stop-opacity="0.38"/>
    </linearGradient>
    <linearGradient id="drink" x1="300" y1="280" x2="620" y2="940" gradientUnits="userSpaceOnUse">
      <stop offset="0" stop-color="#f6ffc2"/>
      <stop offset="0.35" stop-color="#b9f488"/>
      <stop offset="0.68" stop-color="#70e3d3"/>
      <stop offset="1" stop-color="#9c91f5"/>
    </linearGradient>
    <filter id="shadow" x="-30%" y="-20%" width="160%" height="150%">
      <feDropShadow dx="0" dy="26" stdDeviation="18" flood-color="#2d276c" flood-opacity="0.2"/>
    </filter>
    <clipPath id="cupClip">
      <path d="M282 188C303 116 597 116 618 188L584 910C578 1000 322 1000 316 910L282 188Z"/>
    </clipPath>
  </defs>
  <ellipse cx="450" cy="1016" rx="214" ry="50" fill="#30286e" opacity="0.16"/>
  <g filter="url(#shadow)">
    <path d="M282 188C303 116 597 116 618 188L584 910C578 1000 322 1000 316 910L282 188Z" fill="#ffffff" opacity="0.18"/>
    <g clip-path="url(#cupClip)">
      <path d="M306 366C392 322 490 396 600 350L574 892C570 960 330 960 326 892L306 366Z" fill="url(#drink)" opacity="0.92"/>
      <path d="M302 524C372 480 456 550 538 501C563 486 585 482 604 488L594 638C520 602 462 668 378 632C336 614 312 608 302 620V524Z" fill="#fff" opacity="0.2"/>
      <circle cx="394" cy="414" r="9" fill="#fff" opacity="0.6"/>
      <circle cx="530" cy="374" r="7" fill="#fff" opacity="0.48"/>
      <circle cx="552" cy="590" r="9" fill="#fff" opacity="0.36"/>
      <rect x="398" y="468" width="78" height="78" rx="18" fill="#ffffff" opacity="0.15" transform="rotate(-9 437 507)"/>
      <rect x="490" y="572" width="72" height="72" rx="17" fill="#ffffff" opacity="0.13" transform="rotate(13 526 608)"/>
    </g>
    <ellipse cx="450" cy="184" rx="184" ry="64" fill="#ffffff" opacity="0.7"/>
    <ellipse cx="450" cy="184" rx="146" ry="40" fill="#efe9ff" opacity="0.34"/>
    <path d="M282 188C303 116 597 116 618 188L584 910C578 1000 322 1000 316 910L282 188Z" fill="none" stroke="url(#glassEdge)" stroke-width="17"/>
  </g>
</svg>
